HIERARCHY
ROOT Hips
{
	OFFSET 0.000000 0.000000 0.000000
	CHANNELS 6 Xposition Yposition Zposition Yrotation Xrotation Zrotation
	JOINT Chest
	{
		OFFSET 0.000000 -0.009281 11.569106
		CHANNELS 3 Yrotation Xrotation Zrotation
		JOINT Chest2
		{
			OFFSET -0.000000 0.016865 9.269641
			CHANNELS 3 Yrotation Xrotation Zrotation
			JOINT Chest3
			{
				OFFSET -0.000000 0.000001 8.374491
				CHANNELS 3 Yrotation Xrotation Zrotation
				JOINT Chest4
				{
					OFFSET -0.000000 0.000001 8.374493
					CHANNELS 3 Yrotation Xrotation Zrotation
					JOINT Neck
					{
						OFFSET -0.000000 0.000002 12.152554
						CHANNELS 3 Yrotation Xrotation Zrotation
						JOINT Head
						{
							OFFSET -0.000000 0.040101 7.802319
							CHANNELS 3 Yrotation Xrotation Zrotation
							End Site
							{
								OFFSET -0.000000 0.020947 14.853096
							}
						}
					}
					JOINT RightCollar
					{
						OFFSET 2.894404 0.000001 6.791374
						CHANNELS 3 Yrotation Xrotation Zrotation
						JOINT RightShoulder
						{
							OFFSET 13.574684 0.000001 0.000000
							CHANNELS 3 Yrotation Xrotation Zrotation
							JOINT RightElbow
							{
								OFFSET 23.923903 0.000002 0.000000
								CHANNELS 3 Yrotation Xrotation Zrotation
								JOINT RightWrist
								{
									OFFSET 19.846718 0.012767 0.000000
									CHANNELS 3 Yrotation Xrotation Zrotation
									End Site
									{
										OFFSET 14.973145 0.000001 0.000000
									}
								}
							}
						}
					}
					JOINT LeftCollar
					{
						OFFSET -2.894404 0.000001 6.791374
						CHANNELS 3 Yrotation Xrotation Zrotation
						JOINT LeftShoulder
						{
							OFFSET -13.574684 -0.000001 0.000000
							CHANNELS 3 Yrotation Xrotation Zrotation
							JOINT LeftElbow
							{
								OFFSET -23.923903 -0.000002 0.000000
								CHANNELS 3 Yrotation Xrotation Zrotation
								JOINT LeftWrist
								{
									OFFSET -19.846718 0.012763 0.000000
									CHANNELS 3 Yrotation Xrotation Zrotation
									End Site
									{
										OFFSET -14.973145 -0.000001 0.000000
									}
								}
							}
						}
					}
				}
			}
		}
	}
	JOINT RightHip
	{
		OFFSET 9.469263 0.004643 0.045487
		CHANNELS 3 Yrotation Xrotation Zrotation
		JOINT RightKnee
		{
			OFFSET 0.000000 0.002661 -40.478676
			CHANNELS 3 Yrotation Xrotation Zrotation
			JOINT RightAnkle
			{
				OFFSET 0.000000 0.049106 -35.224068
				CHANNELS 3 Yrotation Xrotation Zrotation
				JOINT RightToe
				{
					OFFSET -0.000001 12.539529 -6.151390
					CHANNELS 3 Yrotation Xrotation Zrotation
					End Site
					{
						OFFSET -0.000001 5.044994 -1.291870
					}
				}
			}
		}
	}
	JOINT LeftHip
	{
		OFFSET -9.469263 0.004641 0.045487
		CHANNELS 3 Yrotation Xrotation Zrotation
		JOINT LeftKnee
		{
			OFFSET 0.000000 0.002661 -40.478676
			CHANNELS 3 Yrotation Xrotation Zrotation
			JOINT LeftAnkle
			{
				OFFSET 0.000000 0.049106 -35.224068
				CHANNELS 3 Yrotation Xrotation Zrotation
				JOINT LeftToe
				{
					OFFSET -0.000001 12.539529 -6.151390
					CHANNELS 3 Yrotation Xrotation Zrotation
					End Site
					{
						OFFSET -0.000001 5.044994 -1.291870
					}
				}
			}
		}
	}
}
MOTION
Frames: 15
Frame Time: 0.016667
13.130705 5.884107 82.931534 -5.388813 -1.946200 -106.454748 9.809685 0.110901 -4.742594 4.369451 -0.043662 -2.148595 4.369450 -0.043662 -2.148597 3.276983 -0.048113 -1.611233 -6.444875 -16.499936 18.006305 -5.693842 5.137588 31.102626 6.485626 5.524233 -6.273561 68.266552 39.098861 21.003441 56.466656 39.152075 70.814937 16.368419 37.347584 26.923195 -7.068337 0.273519 -10.943138 -75.039252 42.990286 -65.853289 -47.461137 39.760427 -61.589954 45.975960 49.587330 5.202353 -2.965651 -10.997152 2.339098 -0.027798 -2.509937 0.209469 1.985254 6.977109 -2.783904 0.038314 0.052577 -0.011743 -3.717814 -11.444111 2.222836 0.233893 -0.080863 3.728066 0.576519 5.004809 -1.350514 0.027321 -0.080032 0.020368 
13.121565 5.889473 82.932556 -5.385374 -1.949335 -106.433608 9.814103 0.107156 -4.753156 4.371851 -0.045493 -2.153412 4.371851 -0.045494 -2.153411 3.278779 -0.049529 -1.614830 -6.445146 -16.474549 17.995395 -5.692882 5.185255 31.084666 6.471214 5.610027 -6.268150 68.264114 39.292798 21.360201 56.403661 39.872469 70.474056 14.624521 39.247920 27.533415 -7.087755 0.325960 -10.927319 -74.997465 43.016887 -65.838707 -47.363452 39.791979 -61.449286 45.658237 49.467010 4.806970 -2.963206 -10.984754 2.341384 -0.022341 -2.516638 0.190526 1.978549 6.965534 -2.780408 0.035955 0.053301 -0.011185 -3.710569 -11.431842 2.206568 0.232067 -0.086522 3.714593 0.576726 5.005464 -1.343238 0.027000 -0.082885 0.020338 
13.113062 5.890794 82.932800 -5.382829 -1.956925 -106.444434 9.821694 0.103954 -4.766348 4.375658 -0.047203 -2.158846 4.375659 -0.047204 -2.158849 3.281626 -0.050866 -1.618894 -6.462533 -16.461693 17.993044 -5.722878 5.212502 31.075301 6.486212 5.691431 -6.232500 68.211371 39.443526 21.645785 56.319134 40.618753 70.015265 12.564855 40.950461 27.651498 -7.107725 0.366852 -10.907144 -74.945268 43.068816 -65.811263 -47.310419 39.834353 -61.372494 45.587753 49.288906 4.625638 -2.953218 -10.977795 2.351464 -0.025001 -2.510385 0.177698 1.973429 6.950564 -2.777819 0.032305 0.049557 -0.010343 -3.703588 -11.426649 2.200027 0.232745 -0.089671 3.711197 0.576607 5.012228 -1.317866 0.023575 -0.086821 0.019798 
13.104028 5.889548 82.932442 -5.379583 -1.969033 -106.486952 9.830223 0.099954 -4.775848 4.379893 -0.049650 -2.162345 4.379896 -0.049649 -2.162347 3.284795 -0.052739 -1.621502 -6.492340 -16.464203 17.995750 -5.776908 5.213569 31.069479 6.518421 5.824166 -6.225306 68.055185 39.481970 21.765064 56.002937 41.256023 69.307951 10.157322 42.333902 27.064686 -7.118874 0.391110 -10.904494 -74.923569 43.169511 -65.794809 -47.281520 39.859242 -61.335447 45.765034 49.075271 4.645467 -2.947517 -10.964371 2.372376 -0.027544 -2.506800 0.166847 1.974455 6.936253 -2.732194 0.027614 0.043678 -0.009643 -3.697366 -11.425539 2.195121 0.236201 -0.091487 3.724682 0.576664 5.023546 -1.298699 0.018162 -0.090919 0.018441 
13.095026 5.887366 82.931808 -5.379979 -1.982097 -106.559380 9.840678 0.090525 -4.782323 4.383743 -0.054527 -2.163448 4.383745 -0.054526 -2.163449 3.287667 -0.056416 -1.622296 -6.528898 -16.475374 18.002102 -5.843766 5.199739 31.067214 6.558178 6.009603 -6.226502 67.701614 39.375962 21.542102 55.381312 41.553413 68.371737 6.863731 43.385140 25.599257 -7.128110 0.412799 -10.909389 -74.945002 43.305913 -65.793102 -47.258844 39.858969 -61.293189 45.983480 48.874976 4.706381 -2.939247 -10.954462 2.394771 -0.038251 -2.497551 0.170373 1.978787 6.923596 -2.698089 0.021193 0.033019 -0.010366 -3.699364 -11.430993 2.203909 0.241119 -0.089490 3.740569 0.581296 5.033745 -1.251836 0.011342 -0.091628 0.018141 
13.086580 5.884889 82.931557 -5.381966 -1.993520 -106.651423 9.850537 0.077418 -4.782586 4.387041 -0.061129 -2.161015 4.387043 -0.061130 -2.161016 3.290117 -0.061366 -1.620417 -6.566577 -16.491039 18.008772 -5.913449 5.177882 31.064732 6.617035 6.254495 -6.213730 67.053518 39.056985 20.843301 54.548623 41.515331 67.338760 2.920959 43.864042 23.271061 -7.131754 0.436010 -10.924391 -74.990559 43.454008 -65.798054 -47.224177 39.866441 -61.232796 46.108982 48.734431 4.747815 -2.940335 -10.938614 2.400368 -0.049713 -2.494905 0.207551 1.987990 6.912758 -2.658478 0.014696 0.023259 -0.011230 -3.703651 -11.439655 2.212276 0.243098 -0.087421 3.777462 0.586654 5.041584 -1.218140 0.004498 -0.086856 0.017553 
13.079300 5.881373 82.931679 -5.386334 -2.004795 -106.752599 9.856929 0.058872 -4.773898 4.388349 -0.069837 -2.154436 4.388350 -0.069839 -2.154434 3.291065 -0.067855 -1.615421 -6.593040 -16.505821 18.011361 -5.963787 5.155833 31.058789 6.697438 6.412782 -6.196309 66.291439 38.648567 20.003695 53.608119 41.289528 66.156802 -0.523586 43.257319 20.520861 -7.138578 0.480910 -10.944700 -75.020906 43.574134 -65.792118 -47.192813 39.902576 -61.189192 46.164535 48.623936 4.789277 -2.943228 -10.927698 2.401939 -0.058988 -2.486986 0.259844 1.995010 6.901308 -2.616703 0.007967 0.014045 -0.012130 -3.712542 -11.450083 2.216127 0.247247 -0.087684 3.831164 0.591618 5.049289 -1.184519 -0.001224 -0.079549 0.017565 
13.073133 5.874433 82.931351 -5.398438 -2.021179 -106.851746 9.863317 0.030622 -4.761873 4.387480 -0.083080 -2.145396 4.387478 -0.083081 -2.145395 3.290369 -0.077720 -1.608547 -6.608173 -16.513453 18.014732 -5.991808 5.144528 31.058957 6.771265 6.480277 -6.219450 65.604213 38.214772 19.218534 52.394282 40.837202 64.770984 -2.632882 41.685771 17.980702 -7.142004 0.537454 -10.983468 -75.055398 43.677882 -65.791155 -47.203977 39.951638 -61.189896 46.261404 48.573286 4.857363 -2.943325 -10.922789 2.408076 -0.073426 -2.479235 0.310891 2.007584 6.888566 -2.544202 0.002056 0.005522 -0.011564 -3.714924 -11.473627 2.228282 0.251105 -0.088210 3.863531 0.595556 5.054174 -1.133184 -0.007171 -0.065669 0.016587 
13.067902 5.868125 82.930168 -5.419297 -2.033435 -106.945060 9.870661 -0.002198 -4.753341 4.389309 -0.097930 -2.138755 4.389308 -0.097930 -2.138752 3.291685 -0.088815 -1.603462 -6.626950 -16.515807 18.026884 -6.022629 5.142606 31.074574 6.792381 6.520820 -6.341259 65.098144 37.697327 18.520189 51.448123 40.168247 63.694840 -3.265151 39.686698 16.143232 -7.150365 0.577628 -11.026143 -75.124090 43.785997 -65.827635 -47.222893 40.005661 -61.186815 46.369840 48.509165 4.908858 -2.942773 -10.932502 2.422696 -0.087642 -2.471247 0.346791 2.013766 6.883047 -2.506682 -0.002008 -0.002671 -0.010562 -3.724429 -11.499557 2.245294 0.255949 -0.093373 3.882108 0.601356 5.066312 -1.089374 -0.012597 -0.060232 0.015764 
13.063845 5.862785 82.927498 -5.444917 -2.042213 -107.017139 9.889213 -0.031284 -4.758080 4.396489 -0.111173 -2.138023 4.396488 -0.111174 -2.138022 3.297026 -0.098767 -1.602815 -6.660559 -16.521154 18.052339 -6.076826 5.136693 31.109268 6.820827 6.433519 -6.425570 64.798230 37.232922 18.017124 51.069492 39.456063 63.258692 -2.171166 37.728046 15.471555 -7.153743 0.570409 -11.046738 -75.227423 43.878938 -65.897474 -47.219669 40.061098 -61.180538 46.494477 48.417312 4.962109 -2.948505 -10.947193 2.421400 -0.101681 -2.466748 0.383311 2.024803 6.882407 -2.460778 -0.005264 -0.010518 -0.009884 -3.736360 -11.525041 2.234026 0.260672 -0.105165 3.922111 0.609817 5.083454 -1.053848 -0.018625 -0.058116 0.014459 
13.059670 5.864629 82.923851 -5.473195 -2.050882 -107.069342 9.913345 -0.054865 -4.762956 4.406917 -0.122043 -2.137871 4.406917 -0.122042 -2.137869 3.304807 -0.106957 -1.602620 -6.695805 -16.539604 18.077523 -6.136630 5.107199 31.141725 6.866612 6.375438 -6.455387 64.669624 36.841514 17.659019 51.201031 38.843006 63.600147 0.364881 35.996750 15.775630 -7.150242 0.569298 -11.064956 -75.320369 43.933238 -65.935559 -47.190074 40.134263 -61.151572 46.600079 48.376652 5.038654 -2.955238 -10.960621 2.424688 -0.107033 -2.476883 0.410548 2.026995 6.890052 -2.452898 -0.005064 -0.016426 -0.010903 -3.751710 -11.548126 2.215033 0.268950 -0.122295 3.961075 0.620234 5.103234 -1.029927 -0.023416 -0.058694 0.013300 
13.055804 5.869981 82.920273 -5.502847 -2.056869 -107.094730 9.941947 -0.068905 -4.764642 4.418729 -0.128353 -2.137118 4.418731 -0.128354 -2.137119 3.313645 -0.111726 -1.602012 -6.721342 -16.579442 18.093106 -6.185937 5.037748 31.157995 6.889352 6.383005 -6.464512 64.781605 36.612170 17.433213 51.783721 38.258492 64.666974 3.484124 34.629602 16.382349 -7.145067 0.558677 -11.091616 -75.414905 43.957769 -65.982558 -47.165882 40.244643 -61.101151 46.645592 48.399554 5.092996 -2.967022 -10.974541 2.431317 -0.107234 -2.492490 0.423107 2.027293 6.899059 -2.458362 -0.002113 -0.019517 -0.010988 -3.768861 -11.568798 2.203723 0.278443 -0.140001 3.984032 0.632111 5.120193 -1.015946 -0.027091 -0.059516 0.012687 
13.052661 5.880806 82.917152 -5.528741 -2.057554 -107.094860 9.976440 -0.066597 -4.767116 4.433098 -0.127477 -2.138008 4.433101 -0.127477 -2.138008 3.324427 -0.111126 -1.602681 -6.736758 -16.637946 18.097163 -6.224061 4.933455 31.154911 6.900827 6.390569 -6.412717 65.049472 36.770539 17.342834 52.621423 37.609074 65.914788 6.870729 33.685038 17.319288 -7.146622 0.550982 -11.082767 -75.522590 43.912802 -66.029836 -47.156777 40.374549 -61.049631 46.648891 48.458478 5.153674 -2.982466 -10.982230 2.441461 -0.101273 -2.517984 0.428615 2.020450 6.911682 -2.473915 0.003667 -0.019047 -0.011560 -3.786307 -11.584350 2.207362 0.284892 -0.153556 3.985348 0.645701 5.131833 -1.024912 -0.028655 -0.060067 0.012843 
13.052480 5.893725 82.914963 -5.553318 -2.051335 -107.061672 10.010154 -0.052382 -4.775158 4.446913 -0.121017 -2.142126 4.446915 -0.121017 -2.142127 3.334810 -0.106359 -1.605814 -6.738548 -16.704843 18.089983 -6.242533 4.812349 31.135192 6.900380 6.367369 -6.353307 65.361967 37.234875 17.422013 53.478356 36.943704 66.978406 10.296814 33.074279 18.563933 -7.158991 0.555853 -11.052781 -75.608773 43.803366 -66.049664 -47.128619 40.486476 -61.000877 46.800326 48.523409 5.325927 -3.003819 -10.994103 2.439582 -0.089510 -2.541052 0.425580 2.008790 6.922337 -2.495736 0.011792 -0.014573 -0.012071 -3.804098 -11.596453 2.217728 0.288553 -0.165369 3.967109 0.656272 5.137470 -1.053133 -0.025519 -0.058420 0.013951 
13.055427 5.910346 82.913864 -5.576800 -2.042941 -107.001948 10.035845 -0.035082 -4.789716 4.458007 -0.113452 -2.149820 4.458008 -0.113452 -2.149821 3.343157 -0.100779 -1.611636 -6.723413 -16.762077 18.072925 -6.231395 4.706622 31.104036 6.846853 6.350068 -6.375944 65.679318 37.602046 17.668658 54.257698 36.506214 67.908869 13.477870 32.742366 19.924439 -7.178691 0.566193 -11.042564 -75.628683 43.691993 -66.025929 -47.115208 40.563220 -60.984478 47.152675 48.606478 5.618230 -3.026474 -11.010211 2.433742 -0.071967 -2.563497 0.403266 1.993396 6.929755 -2.520573 0.020841 -0.005232 -0.013333 -3.821422 -11.609383 2.223011 0.290497 -0.170231 3.938178 0.666883 5.135632 -1.072898 -0.019522 -0.055296 0.015323 
